<?xml version="1.0" encoding="utf-8"?>
<!-- Generator: Adobe Illustrator 21.1.0, SVG Export Plug-In . SVG Version: 6.00 Build 0)  -->
<svg version="1.1" id="Layer_1" xmlns="http://www.w3.org/2000/svg" xmlns:xlink="http://www.w3.org/1999/xlink" x="0px" y="0px"
	 viewBox="0 0 382.9 195.3" style="enable-background:new 0 0 382.9 195.3;" xml:space="preserve">
<style type="text/css">
	.st0{fill:#FFFFFF;}
</style>
<g>
	<path d="M27.5,160.4H0v-14.2h4.6v-30.8H0v-14.2h28.3c6.5,0,11.7,0.4,15.8,1.2c4.1,0.8,8,2.4,11.6,4.9c3.6,2.5,6.4,5.9,8.5,10.1
		c1,2,1.8,4.2,2.3,6.5c0.5,2.3,0.8,4.8,0.8,7.3c0,5.1-1.1,9.8-3.3,14c-2.2,4.2-4.9,7.4-8.2,9.6c-3.2,2.2-6.8,3.7-10.6,4.4
		C41.4,160.1,35.5,160.4,27.5,160.4z M27.5,115.5v30.8h2.2c5.4,0,8.9-1.4,10.5-4.3c1.6-2.9,2.4-6.5,2.4-10.8c0-2.6-0.3-5.2-1-7.7
		c-0.7-2.5-2-4.5-3.7-5.9c-1.8-1.4-4.9-2.1-9.4-2.1H27.5z"/>
	<path d="M89.2,115.5h-4.5v-14.2h30.3v14.2h-2.8v19.9c0,4.8,0.5,8,1.4,9.7c0.9,1.7,2.5,2.5,4.9,2.5c2,0,3.4-0.7,4.2-2.2
		c0.9-1.4,1.3-4.3,1.3-8.7v-21.3h-3v-14.2h22.2v14.2h-4.7v21.4c0,5.5-0.8,9.9-2.4,13.4c-1.6,3.5-4.2,6.2-7.9,8.1
		c-3.7,2-8.2,2.9-13.6,2.9c-4.3,0-8.2-0.5-11.5-1.6c-3.4-1-6.1-2.6-8.1-4.7c-2-2.1-3.4-4.6-4.4-7.5c-1-2.9-1.4-7.3-1.4-13.2V115.5z"
		/>
	<path d="M206.8,134.4l15.3,5.4c-1.3,6.3-4.3,11.5-9,15.5c-4.7,4.1-11.2,6.1-19.5,6.1c-11.3,0-19.7-3-25.2-8.9
		c-5.5-5.9-8.2-13.1-8.2-21.6c0-8.6,2.7-15.8,8-21.8c5.4-6,12.3-9,20.9-9c6.9,0,12.6,1.7,17,5.1v-4h14.2v21.6h-14.7
		c-0.8-2.7-2.1-4.8-3.9-6.4c-1.8-1.5-3.9-2.3-6.2-2.3c-6.4,0-9.6,5.5-9.6,16.5c0,11,3.3,16.6,9.9,16.6
		C201.6,147.3,205.3,143,206.8,134.4z"/>
	<path d="M272.3,160.4h-32v-14.2h4.5v-30.8h-4.6v-14.2h32.2v14.2h-4.7v30.8h4.7V160.4z M309,160.4h-30.6v-14.2h2.8l-13-16.8l15-14
		h-4.8v-14.2h29.1v14.2h-4.6L291,126.7l15.1,19.6h2.9V160.4z"/>
	<path d="M369,160.4h-32.3v-14.2h4.8v-9.4l-14.9-21.4h-4v-14.2h30.9v14.2h-3.5l6.3,12.1l7.6-12.1h-3.6v-14.2h22.7v14.2h-3.7
		l-14.9,21.4v9.4h4.7V160.4z"/>
</g>
<g>
	<g>
		<g>
			<path d="M203.6,25.2c0.3,8.3-4.2,14-9.1,17.4c-3.5,2.3-24.6,2.4-27.4,1.1c-0.7-0.3-0.5-0.4-1.1-1.1c-1.3-1.4-3.3-3.7-3.4-4.7
				c-0.4-2.4-15.3,5.4-14-1.3c0.1-0.4,2.4-2.2,4.4-3.8c0.2-0.2,0.9-0.5,0.6-0.5c-4.3,0.2-9.2-6.3-8.8-8.5c0.7-4.7,13.5,4.7,13.7-1.6
				c0.1-4.5,9.7-17.1,24-16.6c4.4,0.1,2.1-6.4,5.6-5.5c2.4,0.6,3.8,4.9,5.9,7.9C197.5,13.1,203.3,16.3,203.6,25.2z"/>
		</g>
	</g>
	<g>
		<g>
			<path d="M217.3,61.3c-1.7,13.4-17.6,19.5-33.3,19.5c-17.6,0-30.7-7.2-31.2-18.7c-0.7-15.9,20.7-27.4,38.5-19.3
				c4.5,2,6.9,4.5,13.1,0.9C215.5,37.4,219.9,40.4,217.3,61.3z"/>
		</g>
	</g>
	<g>
		<g>
			<path d="M215.1,62c-1.5,12.2-16.2,17.8-30.8,17.8c-16.3,0-28.3-6.6-28.8-17.1c-0.7-14.5,19.1-25,35.6-17.6
				c4.1,1.8,6.3,4.1,12.1,0.8C213.5,40.1,217.6,42.9,215.1,62z"/>
		</g>
	</g>
	<g>
		<path d="M201.7,26.9c0.3,9.8-11.6,17.5-19.2,16.9c-27.3-1.9-14-11-20.5-16.5c-6.4-5.4,7.1-17.2,15.2-18.4c2.3-0.3,2.1-0.5,7.1-1.1
			c2.1-0.2,1.3-5.3,3.2-4.3c1.6,0.8,2.6,3.1,4.7,5.6C196.3,14,201.5,17.9,201.7,26.9z"/>
	</g>
	<g>
		<path d="M193.6,58.7c-0.2,3.6-6,8.3-13.4,8.3s-12.3-1.6-13.4-8.3c-0.7-4.5-0.2-9.9,13.4-8.3c7.4,0.9,19.4-0.7,15.2,4
			c-0.3,0.4-2.6,2-4.4,2.3C187.3,57.3,193.8,54.2,193.6,58.7z"/>
	</g>
	<g>
		<path d="M191.8,58.4c-0.2,3.1-5.2,7.1-11.6,7.1c-6.4,0-10.6-1.4-11.6-7.1c-0.6-3.9-0.2-8.5,11.6-7.1c6.3,0.8,16.7-0.6,13.1,3.4
			c-0.3,0.3-2.2,1.8-3.8,2C186.4,57.2,192,54.5,191.8,58.4z"/>
	</g>
	<g>
		
			<ellipse transform="matrix(0.6667 -0.7453 0.7453 0.6667 42.0879 134.5947)" class="st0" cx="171.5" cy="20.2" rx="5.6" ry="4.4"/>
	</g>
	<g>
		<ellipse transform="matrix(0.2727 -0.9621 0.9621 0.2727 106.5636 180.7224)" cx="172.8" cy="19.9" rx="1.8" ry="1.7"/>
	</g>
</g>
<g>
	<path d="M84.5,185.7v8.9h-1.6v-8.9h-2.4v-1.5h6.3v1.5H84.5z"/>
	<path d="M94.3,184.3v6.3c0,0.9,0.1,1.5,0.4,2c0.4,0.6,1,0.9,1.8,0.9c0.8,0,1.4-0.3,1.8-0.9c0.3-0.4,0.4-1.1,0.4-2v-6.3h1.6v6.7
		c0,1.1-0.3,2-1,2.7c-0.8,0.8-1.7,1.2-2.8,1.2s-2.1-0.4-2.8-1.2c-0.7-0.7-1-1.6-1-2.7v-6.7H94.3z"/>
	<path d="M122.1,192.1h-4.5l-1.2,2.5h-1.7l5.1-11.1l5,11.1h-1.7L122.1,192.1z M121.5,190.7l-1.5-3.5l-1.6,3.5H121.5z"/>
	<path d="M135.5,189.2h4.3v0.3c0,0.8-0.1,1.5-0.3,2.1c-0.2,0.6-0.5,1.1-0.9,1.6c-1,1.1-2.2,1.6-3.7,1.6c-1.5,0-2.7-0.5-3.7-1.6
		c-1-1.1-1.6-2.3-1.6-3.8c0-1.5,0.5-2.8,1.6-3.8c1.1-1.1,2.3-1.6,3.9-1.6c0.8,0,1.6,0.2,2.3,0.5c0.7,0.3,1.3,0.9,2,1.6l-1.1,1.1
		c-0.9-1.1-1.9-1.7-3.1-1.7c-1.1,0-2,0.4-2.8,1.1c-0.7,0.7-1.1,1.7-1.1,2.8c0,1.2,0.4,2.1,1.2,2.9c0.8,0.7,1.6,1,2.5,1
		c0.8,0,1.5-0.3,2.1-0.8c0.6-0.5,1-1.2,1-1.9h-2.6V189.2z"/>
	<path d="M151.9,185.7h-4.2v2.5h4v1.5h-4v3.5h4.2v1.5h-5.7v-10.4h5.7V185.7z"/>
	<path d="M158.4,194.7v-11.1l7.6,7.9v-7.2h1.6v11l-7.6-7.9v7.3H158.4z"/>
	<path d="M182.2,184.8v1.9c-0.9-0.8-1.8-1.1-2.8-1.1c-1.1,0-2,0.4-2.7,1.2c-0.7,0.8-1.1,1.7-1.1,2.8c0,1.1,0.4,2,1.1,2.8
		c0.7,0.7,1.6,1.1,2.7,1.1c0.6,0,1-0.1,1.4-0.3c0.2-0.1,0.4-0.2,0.7-0.4c0.2-0.2,0.5-0.3,0.7-0.6v1.9c-0.9,0.5-1.8,0.8-2.8,0.8
		c-1.5,0-2.8-0.5-3.8-1.6c-1-1-1.6-2.3-1.6-3.8c0-1.3,0.4-2.5,1.3-3.5c1.1-1.3,2.5-1.9,4.2-1.9C180.4,184.1,181.3,184.3,182.2,184.8
		z"/>
	<path d="M190.2,184.3v10.4h-1.6v-10.4H190.2z"/>
	<path d="M203.2,192.1h-4.5l-1.2,2.5h-1.7l5.1-11.1l5,11.1h-1.7L203.2,192.1z M202.6,190.7l-1.5-3.5l-1.6,3.5H202.6z"/>
	<path d="M222,190.4v4.2h-1.6v-10.4h1.8c0.9,0,1.5,0.1,2,0.2c0.4,0.1,0.8,0.4,1.2,0.7c0.6,0.6,0.9,1.3,0.9,2.2c0,1-0.3,1.7-1,2.3
		s-1.5,0.8-2.6,0.8H222z M222,189h0.6c1.4,0,2.2-0.6,2.2-1.7c0-1.1-0.7-1.6-2.2-1.6H222V189z"/>
	<path d="M237.6,192.1h-4.5l-1.2,2.5h-1.7l5.1-11.1l5,11.1h-1.7L237.6,192.1z M237,190.7l-1.5-3.5l-1.6,3.5H237z"/>
	<path d="M248.4,185.7v8.9h-1.6v-8.9h-2.4v-1.5h6.3v1.5H248.4z"/>
	<path d="M258.2,184.3v10.4h-1.6v-10.4H258.2z"/>
	<path d="M268,185.7v8.9h-1.6v-8.9H264v-1.5h6.3v1.5H268z"/>
	<path d="M275.3,189.4c0-1.5,0.5-2.7,1.6-3.8c1.1-1.1,2.4-1.6,3.9-1.6c1.5,0,2.8,0.5,3.8,1.6c1.1,1.1,1.6,2.3,1.6,3.8
		c0,1.5-0.5,2.8-1.6,3.8c-1.1,1-2.4,1.6-3.9,1.6c-1.3,0-2.5-0.5-3.6-1.4C275.9,192.4,275.3,191.1,275.3,189.4z M276.9,189.4
		c0,1.1,0.4,2.1,1.2,2.8c0.8,0.7,1.7,1.1,2.7,1.1c1.1,0,2-0.4,2.8-1.1c0.8-0.8,1.1-1.7,1.1-2.8c0-1.1-0.4-2-1.1-2.8
		c-0.7-0.8-1.6-1.1-2.7-1.1c-1.1,0-2,0.4-2.7,1.1C277.3,187.4,276.9,188.3,276.9,189.4z"/>
</g>
</svg>
