<?xml version="1.0" encoding="utf-8"?>
<!-- Generator: Adobe Illustrator 21.1.0, SVG Export Plug-In . SVG Version: 6.00 Build 0)  -->
<svg version="1.1" id="Layer_2" xmlns="http://www.w3.org/2000/svg" xmlns:xlink="http://www.w3.org/1999/xlink" x="0px" y="0px"
	 viewBox="0 0 64.9 64.9" style="enable-background:new 0 0 64.9 64.9;" xml:space="preserve">
<style type="text/css">
	.st0{fill:#FFB600;}
</style>
<g>
	<path class="st0" d="M36.8,28.8h2.1c0.5,0,0.9-0.4,0.9-0.9v-2c0-0.5-0.4-0.9-0.9-0.9h-2.1c-0.5,0-0.9,0.4-0.9,0.9v2
		C35.9,28.5,36.3,28.8,36.8,28.8z"/>
	<path class="st0" d="M38.4,32.6c0,3.2-2.6,5.7-5.9,5.7c-3.2,0-5.9-2.6-5.9-5.7c0-0.6,0.1-1.1,0.2-1.6h-1.7v8c0,0.4,0.3,0.8,0.8,0.8
		H39c0.4,0,0.8-0.3,0.8-0.8v-8h-1.7C38.3,31.5,38.4,32.1,38.4,32.6z"/>
	<ellipse class="st0" cx="32.5" cy="32.4" rx="3.8" ry="3.7"/>
	<path class="st0" d="M32.5,0C14.5,0,0,14.5,0,32.5s14.5,32.5,32.5,32.5c17.9,0,32.5-14.5,32.5-32.5S50.4,0,32.5,0z M41.9,39.5
		c0,1.3-1.1,2.4-2.4,2.4H25.4c-1.3,0-2.4-1.1-2.4-2.4V25.4c0-1.3,1.1-2.4,2.4-2.4h14.1c1.3,0,2.4,1.1,2.4,2.4V39.5z"/>
</g>
</svg>
