<?xml version="1.0" encoding="utf-8"?>
<!-- Generator: Adobe Illustrator 21.1.0, SVG Export Plug-In . SVG Version: 6.00 Build 0)  -->
<svg version="1.1" id="Layer_1" xmlns="http://www.w3.org/2000/svg" xmlns:xlink="http://www.w3.org/1999/xlink" x="0px" y="0px"
	 viewBox="0 0 512 426.7" style="enable-background:new 0 0 512 426.7;" xml:space="preserve">
<style type="text/css">
	.st0{fill:#B7B7B7;}
	.st1{fill:#898989;}
	.st2{fill:#FFD5AB;}
	.st3{fill:#CECECE;}
	.st4{fill:#F2F2F2;}
	.st5{fill:#231F20;}
	.st6{fill:#FFFFFF;}
	.st7{fill:#3D3D3D;}
	.st8{fill:#FCB01A;}
	.st9{fill:#2068B3;}
</style>
<g>
	<g>
		<g>
			<path d="M362.7,0h-32H320h-10.7c0,29.4-23.9,53.3-53.3,53.3S202.7,29.4,202.7,0H192h-10.7h-32L0,85.3l42.7,117.3l64-21.3v245.3
				h298.7V181.3l64,21.3L512,85.3L362.7,0z"/>
		</g>
		<g id="XMLID_14_">
			<g>
				<path class="st4" d="M485.8,94.9l-29.4,80.9l-44.3-14.8l-28.1-9.3v29.6v224H128v-224v-29.6l-28.1,9.3l-44.3,14.8L26.2,94.9
					L155,21.3h29.4c9.2,30.8,37.7,53.3,71.6,53.3c33.8,0,62.4-22.5,71.6-53.3H357L485.8,94.9z"/>
			</g>
		</g>
	</g>
	<g>
		<g>
			<g>
				<path class="st5" d="M294.3,211.5c0.5,14.9-7.5,25.3-16.4,31.3c-6.3,4.2-44.3,4.3-49.3,1.9c-1.3-0.6-0.8-0.7-1.9-1.9
					c-2.3-2.5-5.9-6.6-6.2-8.4c-0.7-4.3-27.5,9.7-25.3-2.3c0.1-0.8,4.3-4,8-6.9c0.4-0.3,1.6-0.9,1.1-0.9
					c-7.8,0.3-16.5-11.4-15.9-15.2c1.3-8.4,24.3,8.4,24.6-2.9c0.2-8.1,17.5-30.8,43.1-29.9c7.9,0.3,3.8-11.5,10-9.9
					c4.3,1.1,6.8,8.8,10.7,14.3C283.4,189.7,293.8,195.5,294.3,211.5z"/>
			</g>
		</g>
		<g>
			<g>
				<path class="st5" d="M319,276.5c-3,24-31.6,35.1-59.9,35.1c-31.7,0-55.2-13-56.1-33.7c-1.3-28.6,37.2-49.4,69.3-34.8
					c8,3.6,12.4,8.1,23.7,1.6C315.8,233.4,323.7,238.8,319,276.5z"/>
			</g>
		</g>
		<g>
			<g>
				<path class="st5" d="M315.1,277.7c-2.8,21.9-29.2,32-55.3,32c-29.3,0-51-11.9-51.8-30.7c-1.2-26.1,34.4-45,64.1-31.7
					c7.4,3.3,11.4,7.4,21.9,1.5C312.1,238.4,319.5,243.3,315.1,277.7z"/>
			</g>
		</g>
		<g>
			<path class="st5" d="M291,214.7c0.5,17.6-20.9,31.4-34.5,30.4c-49.1-3.5-25.3-19.8-36.9-29.8c-11.4-9.8,12.7-31,27.3-33.1
				c4.2-0.6,3.7-1,12.8-2c3.7-0.4,2.3-9.5,5.8-7.8c3,1.4,4.7,5.5,8.4,10C281.2,191.4,290.5,198.4,291,214.7z"/>
		</g>
		<g>
			<path class="st5" d="M276.4,271.9c-0.3,6.5-10.8,14.9-24.1,14.9c-13.3,0-22.2-2.9-24.1-14.9c-1.3-8.1-0.3-17.8,24.1-14.9
				c13.2,1.6,34.8-1.3,27.4,7.1c-0.6,0.6-4.6,3.7-7.9,4.2C265,269.3,276.8,263.7,276.4,271.9z"/>
		</g>
		<g>
			<path class="st5" d="M273.2,271.4c-0.3,5.6-9.3,12.8-20.8,12.8s-19.1-2.5-20.8-12.8c-1.1-7-0.3-15.3,20.8-12.8
				c11.4,1.4,30-1.1,23.6,6.1c-0.5,0.5-4,3.2-6.8,3.6C263.4,269.1,273.5,264.3,273.2,271.4z"/>
		</g>
		<g>
			
				<ellipse transform="matrix(0.6667 -0.7453 0.7453 0.6667 -72.1263 243.9024)" class="st6" cx="236.7" cy="202.6" rx="10.1" ry="8"/>
		</g>
		<g>
			
				<ellipse transform="matrix(0.2727 -0.9621 0.9621 0.2727 -20.5093 376.7706)" class="st5" cx="238.9" cy="202" rx="3.2" ry="3.1"/>
		</g>
	</g>
</g>
</svg>
