<?xml version="1.0" encoding="utf-8"?>
<!-- Generator: Adobe Illustrator 21.1.0, SVG Export Plug-In . SVG Version: 6.00 Build 0)  -->
<svg version="1.1" id="Layer_1" xmlns="http://www.w3.org/2000/svg" xmlns:xlink="http://www.w3.org/1999/xlink" x="0px" y="0px"
	 viewBox="0 0 512 426.7" style="enable-background:new 0 0 512 426.7;" xml:space="preserve">
<style type="text/css">
	.st0{fill:#B7B7B7;}
	.st1{fill:#898989;}
	.st2{fill:#FFD5AB;}
	.st3{fill:#CECECE;}
	.st4{fill:#F2F2F2;}
	.st5{fill:#231F20;}
	.st6{fill:#FFFFFF;}
	.st7{fill:#3D3D3D;}
	.st8{fill:#FCB01A;}
	.st9{fill:#2068B3;}
</style>
<g>
	<g>
		<path d="M278.9,37.7H103.5c-9.5,0-17.2,7.7-17.2,17.2v351.7c0,9.5,7.7,17.2,17.2,17.2h175.7c9.5,0,17.2-7.7,17.2-17.2V54.9
			C296.4,45.4,288.4,37.7,278.9,37.7z"/>
		<g id="XMLID_20_">
			<g>
				<path class="st7" d="M214.6,62.1c2.8,0,5.1,2.3,5.1,5.1c0,2.8-2.3,5.1-5.1,5.1h-46.8c-2.8,0-5.1-2.3-5.1-5.1
					c0-2.8,2.3-5.1,5.1-5.1H214.6z"/>
				<path class="st7" d="M209.7,379c0,10.3-8.2,18.5-18.5,18.5c-10.3,0-18.5-8.2-18.5-18.5c0-10.3,8.5-18.5,18.5-18.5
					C201.2,360.5,209.7,368.7,209.7,379z"/>
			</g>
		</g>
		<g id="XMLID_19_">
			<g>
				<path class="st8" d="M191.2,163.4c37,0,67.1,30.1,67.1,67.1s-30.1,67.1-67.1,67.1S124,267.6,124,230.6S154.1,163.4,191.2,163.4z
					"/>
			</g>
		</g>
		<path class="st6" d="M234.9,206.5c-3,1.3-6.3,2.3-9.7,2.7c3.5-2.1,6.2-5.4,7.4-9.3c-3.3,1.9-6.9,3.3-10.7,4.1
			c-3.1-3.3-7.5-5.3-12.3-5.3c-9.3,0-16.9,7.6-16.9,16.9c0,1.3,0.2,2.6,0.4,3.9c-14-0.7-26.5-7.4-34.8-17.7
			c-1.5,2.5-2.3,5.4-2.3,8.5c0,5.9,3,11,7.5,14.1c-2.8-0.1-5.4-0.8-7.7-2.1c0,0.1,0,0.1,0,0.2c0,8.2,5.8,15,13.5,16.6
			c-1.4,0.4-2.9,0.6-4.4,0.6c-1.1,0-2.1-0.1-3.2-0.3c2.2,6.7,8.4,11.6,15.8,11.7c-5.8,4.5-13.1,7.2-21,7.2c-1.4,0-2.7-0.1-4-0.2
			c7.5,4.8,16.4,7.6,25.9,7.6c31.1,0,48-25.7,48-48.1c0-0.7,0-1.5,0-2.2C229.8,212.9,232.7,209.9,234.9,206.5z"/>
	</g>
	<g>
		<path d="M406.6,1.8H214.4c-10.4,0-18.9,8.5-18.9,18.9V406c0,10.4,8.5,18.9,18.9,18.9h192.5c10.4,0,18.9-8.5,18.9-18.9V20.7
			C425.8,10.3,417,1.8,406.6,1.8z"/>
		<g id="XMLID_18_">
			<g>
				<path class="st7" d="M336.1,28.6c3.1,0,5.6,2.5,5.6,5.6s-2.5,5.6-5.6,5.6h-51.3c-3.1,0-5.6-2.5-5.6-5.6s2.5-5.6,5.6-5.6H336.1z"
					/>
				<path class="st7" d="M330.8,375.8c0,11.3-9,20.3-20.3,20.3c-11.3,0-20.3-9-20.3-20.3s9.3-20.3,20.3-20.3
					C321.5,355.5,330.8,364.5,330.8,375.8z"/>
			</g>
		</g>
		<g id="XMLID_17_">
			<g>
				<path class="st9" d="M310.5,139.6c40.6,0,73.6,33,73.6,73.6s-33,73.6-73.6,73.6s-73.6-33-73.6-73.6S269.9,139.6,310.5,139.6z"/>
			</g>
		</g>
		<path class="st5" d="M351.1,190.7c-1.7-0.8-3.7-1.4-5.6-1.4h-23.1c1.1-6.5,1.7-13,1.4-19.7V169c-0.3-3.7-1.7-7.3-4.5-10.1
			c-2.5-2.8-6.5-3.9-9.9-3.1c-1.1,0.3-2.3,0.6-3.1,1.4l-2.5,1.4c-1.4,0.8-2,2.3-2,3.7v7.3c0,3.4-0.6,6.8-2,10.1
			c-1.4,3.1-3.4,6.2-5.6,8.5l-3.9,3.9c-0.8-1.1-2-1.7-3.4-1.7h-19.2c-2.3,0-4.2,2-4.2,4.2v52.7c0,2.3,2,4.2,4.2,4.2h19.2
			c2.3,0,4.2-2,4.2-4.2v-0.6c2.8,0.8,5.9,1.1,9,1.1H339c5.9,0,11-4.8,11.3-10.7c2.8-12.4,7.6-33.3,7.6-35.8
			C357.6,197.1,355.3,192.9,351.1,190.7z"/>
		<g id="XMLID_16_">
			<g>
				<path class="st6" d="M347.4,198c1.1,0.6,2,2,2,3.1c-0.6,2.3-4.2,19.7-7.6,34.7c0,0.3,0,0.6,0,0.8c0,1.4-1.1,2.8-2.8,2.8h-38.9
					c-3.1,0-6.2-0.6-9-1.4v-34.7l9-9c3.1-3.4,5.6-7,7.3-11.3s2.5-8.7,2.5-13.2v-5.1l0.6-0.3c0.3,0,0.6-0.3,0.8-0.3
					c0.6-0.3,1.4,0,2.3,0.8c1.1,1.1,2,2.8,2,4.5v0.6c0.3,6.2-0.3,12.4-1.4,18.6l-0.8,4.2c-0.3,1.1,0,2.5,0.8,3.4s2,1.4,3.4,1.4h28.2
					C346.3,197.7,346.9,197.7,347.4,198z"/>
			</g>
		</g>
	</g>
</g>
</svg>
