<?xml version="1.0" encoding="utf-8"?>
<!-- Generator: Adobe Illustrator 21.1.0, SVG Export Plug-In . SVG Version: 6.00 Build 0)  -->
<svg version="1.1" id="Layer_1" xmlns="http://www.w3.org/2000/svg" xmlns:xlink="http://www.w3.org/1999/xlink" x="0px" y="0px"
	 viewBox="0 0 512 426.7" style="enable-background:new 0 0 512 426.7;" xml:space="preserve">
<style type="text/css">
	.st0{fill:#B7B7B7;}
	.st1{fill:#898989;}
	.st2{fill:#FFD5AB;}
	.st3{fill:#CECECE;}
	.st4{fill:#F2F2F2;}
	.st5{fill:#231F20;}
	.st6{fill:#FFFFFF;}
	.st7{fill:#3D3D3D;}
	.st8{fill:#FCB01A;}
	.st9{fill:#2068B3;}
</style>
<g>
	<g id="XMLID_7_">
		<g>
			<polygon class="st0" points="229.3,219.6 239.7,237.5 227.7,246.4 213.5,251.2 197.5,223.7 			"/>
			<path d="M443.3,125.9c4.2,32.5,5.9,63.4,4.9,87c-1.3,29.6-6.2,42.8-16.6,44.1c-0.5,0.1-1.1,0.1-1.6,0.1c-5.8,0-11-4.4-16-13.8
				c-48.2-24.4-105-34-160.5-26.9l-8.4,1.1l6.7,11.5c2.5-1.1,5.1-1.8,7.8-1.9c8.6-0.5,16.6,3.5,20.8,10.6c2.4,4,3.6,8.7,3.5,13.4
				c4,1.8,7.4,4.7,9.7,8.5c3,4.9,3.9,10.5,2.8,16c2.3,1.9,4.3,4.2,5.7,6.9c3.5,6.4,3.8,14,0.9,20.9l-0.3,0.7
				c2.5,4.7,3.2,10,1.7,15.2c-1.5,5.4-4.9,10-9.8,12.9l-45.6,28.1c-7,4.3-15.1,6.8-23.3,7.2l-17.1,0.8L170,398
				c-5.1-2.2-10-4.6-14.8-7.3l46.7-35.6c1.2-0.9,2.6-1.4,4.1-1.5l19.4-0.9c5.7-0.3,11.3-2,16.2-5l45.6-28.2c1.6-1,2.7-2.4,3.2-4.1
				c0.4-1.5,0.2-3.1-0.6-4.4l-1.5-2.5c-1.2-2-1.4-4.5-0.5-6.7l1.8-4.1c1.1-2.6,1-5.5-0.2-7.8l-4.5,7.6c-1.4,2.3-3.8,3.6-6.4,3.6
				c-1.3,0-2.6-0.3-3.7-1c-3.5-2.1-4.7-6.6-2.6-10.2l9.6-16.3c0.7-2.1,0.5-4.4-0.5-6.2c-0.6-1-1.5-1.8-2.4-2.4l-8.2,12.2
				c-1.4,2.1-3.8,3.3-6.1,3.3c-1.4,0-2.9-0.4-4.1-1.3c-3.4-2.3-4.3-6.9-2-10.3l10.6-15.8c0.7-2.7,0.4-5.5-1-7.8
				c-1.4-2.3-4.1-3.7-7-3.5c-1.4,0.1-2.6,0.4-3.7,1.1L235.7,259c-0.6,0.5-1.3,0.8-2.1,1.1l-29.4,10c-3.8,1.3-8.1-0.8-9.4-4.6
				c-1.3-3.8,0.7-7.9,4.4-9.3l-4.7-8.1c-0.1,0.1-0.1,0.1-0.3,0.2l-14.2,9.6c-0.1,0.1-0.2,0.1-0.3,0.2c-0.7,0.4-1.2,1-1.5,1.7
				L167,308.9c-0.4,1.8-1.4,3.3-2.9,4.4l-52.8,37.7c-0.4,0.3-0.9,0.5-1.3,0.7c-3-3.8-5.8-7.8-8.3-11.8c0.3-0.3,0.7-0.6,1.1-0.9
				l50.5-36.1l10.7-46.9c0-0.2,0.1-0.4,0.2-0.6c1.3-4.1,4.1-7.7,7.8-10L186,236c0.4-0.3,0.7-0.4,1.1-0.6l-5.6-9.6l-31.4,4
				c-1,0.1-2.1,0.2-3.1,0.2c-7.1,0-13.9-3.2-18.4-8.8c-1.8,0.2-3.6,0.3-5.3,0.3c-12,0-23.5-3.9-33.2-11.4
				c-11.5-8.9-18.9-21.7-20.7-36.2c-3.7-29.2,16.5-56.1,45.4-60.7c3.4-7.5,10.3-12.7,18.6-13.7L235,86.4
				c57.1-7.3,110.7-32.2,151.2-70.1c2.7-9.1,6.8-13.7,12.7-14.4c10.3-1.3,18.5,10.2,27.2,38.5C433,63,439.1,93.4,443.3,125.9z
				 M429.5,240.4c4-10.8,7.2-49.4-0.9-112.7C420.4,64.5,407.6,28,401,18.5c-0.3,0.8-0.6,1.8-0.9,2.9c-0.1,0.4-0.2,0.8-0.3,1.1
				c-2.8,12.1-4.5,39.2-1,80.1c10.3,5,17.5,14.9,19,26.4c1.5,11.5-3,22.9-11.7,30.4c6.4,37.6,14.3,62.5,19.9,74.7
				c0,0.1,0.1,0.2,0.1,0.3C427.4,237,428.5,239,429.5,240.4z M405.9,223.2c-0.5-1.5-1-3-1.5-4.6c-5.2-16.8-9.9-37.9-13.7-61.1
				c0,0,0,0,0-0.1c-1.3-7.9-2.5-16.1-3.6-24.3c-1.1-8.3-2-16.4-2.7-24.4v-0.1c-2.2-23.3-2.9-44.9-2.2-62.5c0.1-2.5,0.3-4.8,0.4-7
				c-40.8,33.3-91.9,55.2-145.8,62.1l-101.6,13.1c-3.4,0.4-6.3,2.7-7.4,6c-10.4,30.3-6,64.3,11.7,90.9c1.9,2.9,5.2,4.4,8.7,4
				l74.6-9.6c-9.3-24.8-14.1-50.8-14.1-77.4c0-4.1,3.3-7.4,7.4-7.4c4.1-0.1,7.4,3.3,7.4,7.4c0,26,4.9,51.4,14.4,75.6l13.8-1.8
				C304.5,195,358.5,202.6,405.9,223.2z M239.7,237.5l-10.4-17.9l-31.8,4.1l16.1,27.5l14.2-4.8L239.7,237.5z M99.1,198.4
				c6.1,4.7,13.2,7.4,20.7,8.1c-11.7-23.7-15.2-50.9-9.9-76.8C92.8,135.9,81.6,153.3,84,172C85.4,182.6,90.7,191.9,99.1,198.4z"/>
			<path class="st1" d="M428.6,127.8c8.1,63.2,4.9,101.8,0.9,112.7c-1-1.4-2.1-3.4-3.3-6c0-0.1-0.1-0.2-0.1-0.3
				c-5.7-12.2-13.5-37.1-19.9-74.7c8.7-7.4,13.2-18.9,11.7-30.4c-1.5-11.5-8.7-21.4-19-26.4c-3.5-40.9-1.8-68.1,1-80.1
				c0.1-0.4,0.2-0.8,0.3-1.1c0.3-1.1,0.6-2.1,0.9-2.9C407.6,28,420.4,64.5,428.6,127.8z"/>
			<path class="st0" d="M404.5,218.6c0.5,1.6,1,3.1,1.5,4.6c-47.4-20.6-101.5-28.2-154.2-21.4l-13.8,1.8
				c-9.5-24.1-14.4-49.5-14.4-75.6c0-4.1-3.4-7.4-7.4-7.4c-4.1,0-7.4,3.3-7.4,7.4c0.1,26.6,4.8,52.6,14.1,77.4l-74.6,9.6
				c-3.4,0.4-6.8-1.1-8.7-4c-17.7-26.7-22.1-60.6-11.7-90.9c1.1-3.3,4-5.6,7.4-6l101.6-13.1c54-6.9,105-28.8,145.8-62.1
				c-0.1,2.2-0.3,4.5-0.4,7c-0.7,17.6,0,39.2,2.2,62.5v0.1c0.7,8,1.6,16.1,2.7,24.4c1.1,8.3,2.3,16.4,3.6,24.3c0,0,0,0,0,0.1
				C394.6,180.6,399.3,201.7,404.5,218.6z"/>
			<path d="M394.6,257.1c1.2,91.3-72,166.5-163.3,167.8H229c-43.4,0-84.3-16.6-115.4-46.9c-31.7-30.8-49.5-72.2-50.1-116.4
				c-0.2-12.1,1-24.3,3.4-36.1c0.8-4,4.8-6.6,8.8-5.7c4,0.8,6.6,4.7,5.8,8.8c-2.2,10.7-3.3,21.8-3.1,32.8
				c0.4,28.3,8.5,55.3,23.3,78.6c2.6,4.1,5.4,8,8.3,11.8c4.3,5.5,8.9,10.7,13.9,15.6c9.5,9.2,20,17,31.2,23.4
				c4.8,2.7,9.8,5.2,14.8,7.3c19.1,8.1,39.8,12.3,61.2,12c83.1-1.1,149.8-69.7,148.7-152.8c-0.1-4.1,3.2-7.4,7.3-7.5
				C391.2,249.8,394.6,253,394.6,257.1z"/>
			<path class="st2" d="M289.9,311c0.8,1.3,1,2.9,0.6,4.4c-0.5,1.7-1.6,3.1-3.2,4.1l-45.6,28.2c-4.9,3-10.4,4.7-16.2,5l-19.4,0.9
				c-1.5,0.1-2.9,0.6-4.1,1.5l-46.7,35.6c-11.2-6.3-21.7-14.1-31.2-23.4c-5-4.9-9.7-10.1-13.9-15.6c0.5-0.2,0.9-0.4,1.3-0.7
				l52.8-37.7c1.5-1.1,2.5-2.6,2.9-4.4l11.2-49.2c0.3-0.7,0.8-1.3,1.5-1.7c0.1-0.1,0.2-0.1,0.3-0.2l14.2-9.6
				c0.1-0.1,0.2-0.1,0.3-0.2l4.7,8.1c-3.7,1.4-5.7,5.5-4.4,9.3c1.3,3.9,5.5,5.9,9.4,4.6l29.4-10c0.7-0.3,1.4-0.6,2.1-1.1l21.6-16.1
				c1.1-0.6,2.3-1,3.7-1.1c2.9-0.2,5.6,1.1,7,3.5c1.4,2.3,1.8,5.1,1,7.8l-10.6,15.8c-2.3,3.4-1.4,8,2,10.3c1.3,0.8,2.7,1.3,4.1,1.3
				c2.4,0,4.7-1.1,6.1-3.3l8.2-12.2c1,0.6,1.8,1.3,2.4,2.4c1.1,1.8,1.3,4.1,0.5,6.2l-9.6,16.3c-2.1,3.5-0.9,8.1,2.6,10.2
				c1.2,0.7,2.5,1,3.7,1c2.5,0,5-1.3,6.4-3.6l4.5-7.6c1.2,2.4,1.3,5.2,0.2,7.8l-1.8,4.1c-0.9,2.2-0.7,4.7,0.5,6.7L289.9,311z"/>
			<path class="st3" d="M119.8,206.5c-7.5-0.7-14.6-3.4-20.7-8.1c-8.4-6.5-13.7-15.8-15.1-26.3c-2.4-18.8,8.8-36.2,25.9-42.4
				C104.6,155.6,108.1,182.8,119.8,206.5z"/>
		</g>
	</g>
</g>
</svg>
