<?xml version="1.0" encoding="utf-8"?>
<!-- Generator: Adobe Illustrator 21.1.0, SVG Export Plug-In . SVG Version: 6.00 Build 0)  -->
<svg version="1.1" id="Layer_2" xmlns="http://www.w3.org/2000/svg" xmlns:xlink="http://www.w3.org/1999/xlink" x="0px" y="0px"
	 viewBox="0 0 64.9 64.9" style="enable-background:new 0 0 64.9 64.9;" xml:space="preserve">
<style type="text/css">
	.st0{fill:#FFB600;}
</style>
<path class="st0" d="M32.5,0C14.5,0,0,14.5,0,32.5s14.5,32.5,32.5,32.5c17.9,0,32.5-14.5,32.5-32.5S50.4,0,32.5,0z M42,27.6
	c0,0.2,0,0.4,0,0.6c0,6.5-4.9,14-14,14c-2.8,0-5.4-0.8-7.5-2.2c0.4,0,0.8,0.1,1.2,0.1c2.3,0,4.4-0.8,6.1-2.1c-2.2,0-4-1.5-4.6-3.4
	c0.3,0.1,0.6,0.1,0.9,0.1c0.4,0,0.9-0.1,1.3-0.2c-2.2-0.5-3.9-2.4-3.9-4.8c0,0,0,0,0-0.1c0.7,0.4,1.4,0.6,2.2,0.6
	c-1.3-0.9-2.2-2.4-2.2-4.1c0-0.9,0.2-1.7,0.7-2.5c2.4,3,6,4.9,10.1,5.1c-0.1-0.4-0.1-0.7-0.1-1.1c0-2.7,2.2-4.9,4.9-4.9
	c1.4,0,2.7,0.6,3.6,1.6c1.1-0.2,2.2-0.6,3.1-1.2c-0.4,1.1-1.1,2.1-2.2,2.7c1-0.1,1.9-0.4,2.8-0.8C43.8,26,42.9,26.9,42,27.6z"/>
</svg>
