<?xml version="1.0" encoding="utf-8"?>
<!-- Generator: Adobe Illustrator 21.1.0, SVG Export Plug-In . SVG Version: 6.00 Build 0)  -->
<svg version="1.1" id="Layer_1" xmlns="http://www.w3.org/2000/svg" xmlns:xlink="http://www.w3.org/1999/xlink" x="0px" y="0px"
	 viewBox="0 0 170 187.4" style="enable-background:new 0 0 170 187.4;" xml:space="preserve">
<style type="text/css">
	.st0{fill:#FBB040;}
	.st1{fill:#F7941D;}
	.st2{fill:#010101;}
	.st3{fill:#FFFFFF;}
</style>
<g>
	<g>
		<path class="st0" d="M136.5,58.4c0.7,19.2-9.7,32.5-21.2,40.3c-8.1,5.4-57.1,5.5-63.5,2.5c-1.6-0.8-1.1-1-2.5-2.5
			c-3-3.2-7.5-8.5-7.9-10.9c-0.9-5.5-35.5,12.5-32.6-2.9c0.2-1,5.5-5.2,10.3-8.9c0.5-0.4,2-1.2,1.4-1.1C10.5,75.4-0.7,60.3,0,55.3
			c1.7-10.9,31.3,10.9,31.7-3.8C32.1,41.1,54.3,11.9,87.4,13c10.2,0.3,5-14.9,12.9-12.8c5.6,1.5,8.8,11.4,13.8,18.4
			C122.4,30.3,135.7,37.8,136.5,58.4z"/>
	</g>
	<g>
		<path class="st0" d="M168.3,142.1c-3.9,31-40.7,45.2-77.2,45.2c-40.8,0-71.1-16.8-72.3-43.4c-1.7-36.9,48-63.6,89.3-44.8
			c10.3,4.7,15.9,10.4,30.5,2.1C164.1,86.6,174.4,93.6,168.3,142.1z"/>
	</g>
	<g>
		<path class="st1" d="M163.3,143.7c-3.6,28.2-37.6,41.2-71.3,41.2c-37.7,0-65.7-15.3-66.8-39.6c-1.5-33.6,44.3-58,82.5-40.9
			c9.5,4.3,14.7,9.5,28.2,1.9C159.4,93,168.9,99.4,163.3,143.7z"/>
	</g>
	<path class="st1" d="M132.2,62.5c0.6,22.7-26.9,40.5-44.4,39.2c-63.2-4.5-32.6-25.6-47.5-38.3c-14.7-12.6,16.4-40,35.1-42.6
		c5.4-0.8,4.8-1.3,16.5-2.5c4.8-0.5,2.9-12.2,7.5-10c3.8,1.8,6.1,7.1,10.9,12.9C119.6,32.5,131.6,41.6,132.2,62.5z"/>
	<path class="st0" d="M113.4,136.2c-0.4,8.4-13.9,19.2-31.1,19.2s-28.6-3.8-31.1-19.2c-1.7-10.5-0.4-23,31.1-19.2
		c17.1,2,44.9-1.7,35.3,9.2c-0.7,0.8-6,4.7-10.2,5.4C98.7,132.8,113.9,125.6,113.4,136.2z"/>
	<path class="st1" d="M109.2,135.5c-0.4,7.2-12,16.5-26.8,16.5s-24.6-3.2-26.8-16.5c-1.5-9-0.4-19.8,26.8-16.5
		c14.7,1.8,38.6-1.4,30.4,7.9c-0.6,0.7-5.1,4.1-8.8,4.6C96.6,132.6,109.6,126.4,109.2,135.5z"/>
	<ellipse transform="matrix(0.6667 -0.7453 0.7453 0.6667 -14.2473 61.9692)" class="st2" cx="62.2" cy="46.9" rx="13" ry="10.3"/>
	<ellipse transform="matrix(0.2727 -0.9621 0.9621 0.2727 5.4799 91.2285)" class="st3" cx="63.1" cy="42" rx="4.2" ry="4"/>
	<ellipse class="st3" cx="58.5" cy="50.8" rx="3.1" ry="2.9"/>
</g>
</svg>
